<svg width="307" height="293" viewBox="0 0 307 293" fill="none" xmlns="http://www.w3.org/2000/svg">
<g clip-path="url(#clip0_379_933)">
<path d="M212.719 203.926C224.048 202.753 232.642 192.987 232.251 181.265C231.862 169.546 222.094 160.169 210.374 160.169H209.593C197.481 160.56 188.106 170.717 188.497 182.828C188.888 188.689 191.231 193.767 194.747 197.283C181.465 223.46 161.15 242.603 130.678 258.621C109.972 269.56 88.4855 273.467 66.9991 270.733C49.4186 268.389 35.7451 260.576 27.1491 247.682C14.6484 228.539 13.4768 207.832 24.0251 187.126C31.4483 172.28 43.1671 161.34 50.5902 155.871C49.0276 150.792 46.6832 142.197 45.5115 135.947C-11.136 176.969 -5.27538 232.446 11.9142 258.621C24.8058 278.156 50.9812 290.267 79.8907 290.267C87.7036 290.267 95.5166 289.485 103.331 287.533C153.337 277.765 191.232 248.073 212.719 203.926ZM281.477 155.481C251.786 120.71 208.031 101.567 158.025 101.567H151.774C148.258 94.5344 140.835 89.8454 132.631 89.8454H131.849C119.74 90.2364 110.364 100.394 110.754 112.506C111.145 124.226 120.911 133.603 132.631 133.603H133.412C142.007 133.212 149.43 127.742 152.555 120.319H159.587C189.279 120.319 217.406 128.914 242.801 145.713C262.334 158.606 276.398 175.406 284.211 195.721C290.852 212.13 290.462 228.148 283.429 241.822C272.491 262.528 254.13 273.858 229.908 273.858C214.281 273.858 199.436 269.169 191.622 265.653C187.325 269.56 179.511 275.811 174.041 279.719C190.841 287.532 208.031 291.83 224.439 291.83C261.943 291.83 289.681 271.123 300.229 250.417C311.558 227.757 310.776 188.689 281.477 155.481ZM83.0159 210.566C83.4068 222.287 93.1733 231.663 104.893 231.663H105.675C117.786 231.273 127.162 221.114 126.771 209.003C126.381 197.282 116.613 187.907 104.893 187.907H104.113C103.331 187.907 102.158 187.907 101.378 188.296C85.3604 161.73 78.7191 132.821 81.0636 101.565C82.625 78.1243 90.4391 57.8083 104.113 41.0084C115.442 26.5531 137.319 19.5208 152.165 19.1311C193.575 18.3492 211.155 69.9192 212.328 90.6261C217.406 91.7977 226.001 94.5332 231.862 96.4867C227.173 33.1967 188.106 0.378906 150.603 0.378906C115.442 0.378906 83.0159 25.7736 70.1231 63.2791C52.1528 113.287 63.8728 161.34 85.7501 199.237C83.7978 201.971 82.625 206.268 83.0159 210.566Z" fill="#764ABC"/>
</g>
<defs>
<clipPath id="clip0_379_933">
<rect width="307" height="292.632" fill="white" transform="translate(0 0.367676)"/>
</clipPath>
</defs>
</svg>
